<?xml version="1.0" encoding="UTF-8"?>
<svg xmlns="http://www.w3.org/2000/svg" xmlns:xlink="http://www.w3.org/1999/xlink" width="3873" height="3873" viewBox="0 0 3873 3873">
<defs>
<clipPath id="clip-0">
<path clip-rule="evenodd" d="M 1936.5 0 C 3006 0 3873 867 3873 1936.5 C 3873 3006 3006 3873 1936.5 3873 C 867 3873 0 3006 0 1936.5 C 0 867 867 0 1936.5 0 "/>
</clipPath>
<radialGradient id="radial-pattern-0" gradientUnits="userSpaceOnUse" cx="0" cy="0" fx="0" fy="0" r="1549.19" gradientTransform="matrix(1, 0, 0, 1, 1936.5, 1936.5)">
<stop offset="0" stop-color="rgb(33.201599%, 33.201599%, 33.201599%)" stop-opacity="1"/>
<stop offset="0.0078125" stop-color="rgb(32.876587%, 32.876587%, 32.876587%)" stop-opacity="1"/>
<stop offset="0.0195312" stop-color="rgb(32.485962%, 32.485962%, 32.485962%)" stop-opacity="1"/>
<stop offset="0.03125" stop-color="rgb(32.095337%, 32.095337%, 32.095337%)" stop-opacity="1"/>
<stop offset="0.0429688" stop-color="rgb(31.704712%, 31.704712%, 31.704712%)" stop-opacity="1"/>
<stop offset="0.0546875" stop-color="rgb(31.314087%, 31.314087%, 31.314087%)" stop-opacity="1"/>
<stop offset="0.0664062" stop-color="rgb(30.923462%, 30.923462%, 30.923462%)" stop-opacity="1"/>
<stop offset="0.078125" stop-color="rgb(30.532837%, 30.532837%, 30.532837%)" stop-opacity="1"/>
<stop offset="0.0898438" stop-color="rgb(30.142212%, 30.142212%, 30.142212%)" stop-opacity="1"/>
<stop offset="0.101562" stop-color="rgb(29.751587%, 29.751587%, 29.751587%)" stop-opacity="1"/>
<stop offset="0.113281" stop-color="rgb(29.360962%, 29.360962%, 29.360962%)" stop-opacity="1"/>
<stop offset="0.125" stop-color="rgb(28.970337%, 28.970337%, 28.970337%)" stop-opacity="1"/>
<stop offset="0.136719" stop-color="rgb(28.579712%, 28.579712%, 28.579712%)" stop-opacity="1"/>
<stop offset="0.148438" stop-color="rgb(28.189087%, 28.189087%, 28.189087%)" stop-opacity="1"/>
<stop offset="0.160156" stop-color="rgb(27.798462%, 27.798462%, 27.798462%)" stop-opacity="1"/>
<stop offset="0.171875" stop-color="rgb(27.407837%, 27.407837%, 27.407837%)" stop-opacity="1"/>
<stop offset="0.183594" stop-color="rgb(27.017212%, 27.017212%, 27.017212%)" stop-opacity="1"/>
<stop offset="0.195312" stop-color="rgb(26.626587%, 26.626587%, 26.626587%)" stop-opacity="1"/>
<stop offset="0.207031" stop-color="rgb(26.235962%, 26.235962%, 26.235962%)" stop-opacity="1"/>
<stop offset="0.21875" stop-color="rgb(25.845337%, 25.845337%, 25.845337%)" stop-opacity="1"/>
<stop offset="0.230469" stop-color="rgb(25.454712%, 25.454712%, 25.454712%)" stop-opacity="1"/>
<stop offset="0.242188" stop-color="rgb(25.064087%, 25.064087%, 25.064087%)" stop-opacity="1"/>
<stop offset="0.253906" stop-color="rgb(24.737549%, 24.737549%, 24.737549%)" stop-opacity="1"/>
<stop offset="0.261719" stop-color="rgb(24.478149%, 24.478149%, 24.478149%)" stop-opacity="1"/>
<stop offset="0.269531" stop-color="rgb(24.217224%, 24.217224%, 24.217224%)" stop-opacity="1"/>
<stop offset="0.277344" stop-color="rgb(23.956299%, 23.956299%, 23.956299%)" stop-opacity="1"/>
<stop offset="0.285156" stop-color="rgb(23.696899%, 23.696899%, 23.696899%)" stop-opacity="1"/>
<stop offset="0.292969" stop-color="rgb(23.435974%, 23.435974%, 23.435974%)" stop-opacity="1"/>
<stop offset="0.300781" stop-color="rgb(23.175049%, 23.175049%, 23.175049%)" stop-opacity="1"/>
<stop offset="0.308594" stop-color="rgb(22.915649%, 22.915649%, 22.915649%)" stop-opacity="1"/>
<stop offset="0.316406" stop-color="rgb(22.654724%, 22.654724%, 22.654724%)" stop-opacity="1"/>
<stop offset="0.324219" stop-color="rgb(22.393799%, 22.393799%, 22.393799%)" stop-opacity="1"/>
<stop offset="0.332031" stop-color="rgb(22.134399%, 22.134399%, 22.134399%)" stop-opacity="1"/>
<stop offset="0.339844" stop-color="rgb(21.873474%, 21.873474%, 21.873474%)" stop-opacity="1"/>
<stop offset="0.347656" stop-color="rgb(21.612549%, 21.612549%, 21.612549%)" stop-opacity="1"/>
<stop offset="0.355469" stop-color="rgb(21.353149%, 21.353149%, 21.353149%)" stop-opacity="1"/>
<stop offset="0.363281" stop-color="rgb(21.092224%, 21.092224%, 21.092224%)" stop-opacity="1"/>
<stop offset="0.371094" stop-color="rgb(20.831299%, 20.831299%, 20.831299%)" stop-opacity="1"/>
<stop offset="0.378906" stop-color="rgb(20.571899%, 20.571899%, 20.571899%)" stop-opacity="1"/>
<stop offset="0.386719" stop-color="rgb(20.310974%, 20.310974%, 20.310974%)" stop-opacity="1"/>
<stop offset="0.394531" stop-color="rgb(20.050049%, 20.050049%, 20.050049%)" stop-opacity="1"/>
<stop offset="0.402344" stop-color="rgb(19.790649%, 19.790649%, 19.790649%)" stop-opacity="1"/>
<stop offset="0.410156" stop-color="rgb(19.529724%, 19.529724%, 19.529724%)" stop-opacity="1"/>
<stop offset="0.417969" stop-color="rgb(19.268799%, 19.268799%, 19.268799%)" stop-opacity="1"/>
<stop offset="0.425781" stop-color="rgb(19.009399%, 19.009399%, 19.009399%)" stop-opacity="1"/>
<stop offset="0.433594" stop-color="rgb(18.748474%, 18.748474%, 18.748474%)" stop-opacity="1"/>
<stop offset="0.441406" stop-color="rgb(18.487549%, 18.487549%, 18.487549%)" stop-opacity="1"/>
<stop offset="0.449219" stop-color="rgb(18.228149%, 18.228149%, 18.228149%)" stop-opacity="1"/>
<stop offset="0.457031" stop-color="rgb(17.967224%, 17.967224%, 17.967224%)" stop-opacity="1"/>
<stop offset="0.464844" stop-color="rgb(17.706299%, 17.706299%, 17.706299%)" stop-opacity="1"/>
<stop offset="0.472656" stop-color="rgb(17.446899%, 17.446899%, 17.446899%)" stop-opacity="1"/>
<stop offset="0.480469" stop-color="rgb(17.185974%, 17.185974%, 17.185974%)" stop-opacity="1"/>
<stop offset="0.488281" stop-color="rgb(16.925049%, 16.925049%, 16.925049%)" stop-opacity="1"/>
<stop offset="0.496094" stop-color="rgb(16.665649%, 16.665649%, 16.665649%)" stop-opacity="1"/>
<stop offset="0.503906" stop-color="rgb(16.340637%, 16.340637%, 16.340637%)" stop-opacity="1"/>
<stop offset="0.515625" stop-color="rgb(15.950012%, 15.950012%, 15.950012%)" stop-opacity="1"/>
<stop offset="0.527344" stop-color="rgb(15.559387%, 15.559387%, 15.559387%)" stop-opacity="1"/>
<stop offset="0.539062" stop-color="rgb(15.168762%, 15.168762%, 15.168762%)" stop-opacity="1"/>
<stop offset="0.550781" stop-color="rgb(14.778137%, 14.778137%, 14.778137%)" stop-opacity="1"/>
<stop offset="0.5625" stop-color="rgb(14.387512%, 14.387512%, 14.387512%)" stop-opacity="1"/>
<stop offset="0.574219" stop-color="rgb(13.996887%, 13.996887%, 13.996887%)" stop-opacity="1"/>
<stop offset="0.585938" stop-color="rgb(13.606262%, 13.606262%, 13.606262%)" stop-opacity="1"/>
<stop offset="0.597656" stop-color="rgb(13.215637%, 13.215637%, 13.215637%)" stop-opacity="1"/>
<stop offset="0.609375" stop-color="rgb(12.825012%, 12.825012%, 12.825012%)" stop-opacity="1"/>
<stop offset="0.621094" stop-color="rgb(12.434387%, 12.434387%, 12.434387%)" stop-opacity="1"/>
<stop offset="0.632812" stop-color="rgb(12.107849%, 12.107849%, 12.107849%)" stop-opacity="1"/>
<stop offset="0.640625" stop-color="rgb(11.846924%, 11.846924%, 11.846924%)" stop-opacity="1"/>
<stop offset="0.648438" stop-color="rgb(11.587524%, 11.587524%, 11.587524%)" stop-opacity="1"/>
<stop offset="0.65625" stop-color="rgb(11.326599%, 11.326599%, 11.326599%)" stop-opacity="1"/>
<stop offset="0.664062" stop-color="rgb(11.065674%, 11.065674%, 11.065674%)" stop-opacity="1"/>
<stop offset="0.671875" stop-color="rgb(10.806274%, 10.806274%, 10.806274%)" stop-opacity="1"/>
<stop offset="0.679688" stop-color="rgb(10.545349%, 10.545349%, 10.545349%)" stop-opacity="1"/>
<stop offset="0.6875" stop-color="rgb(10.284424%, 10.284424%, 10.284424%)" stop-opacity="1"/>
<stop offset="0.695312" stop-color="rgb(10.025024%, 10.025024%, 10.025024%)" stop-opacity="1"/>
<stop offset="0.703125" stop-color="rgb(9.764099%, 9.764099%, 9.764099%)" stop-opacity="1"/>
<stop offset="0.710938" stop-color="rgb(9.503174%, 9.503174%, 9.503174%)" stop-opacity="1"/>
<stop offset="0.71875" stop-color="rgb(9.243774%, 9.243774%, 9.243774%)" stop-opacity="1"/>
<stop offset="0.726562" stop-color="rgb(8.982849%, 8.982849%, 8.982849%)" stop-opacity="1"/>
<stop offset="0.734375" stop-color="rgb(8.721924%, 8.721924%, 8.721924%)" stop-opacity="1"/>
<stop offset="0.742188" stop-color="rgb(8.462524%, 8.462524%, 8.462524%)" stop-opacity="1"/>
<stop offset="0.75" stop-color="rgb(8.201599%, 8.201599%, 8.201599%)" stop-opacity="1"/>
<stop offset="0.757812" stop-color="rgb(7.876587%, 7.876587%, 7.876587%)" stop-opacity="1"/>
<stop offset="0.769531" stop-color="rgb(7.485962%, 7.485962%, 7.485962%)" stop-opacity="1"/>
<stop offset="0.78125" stop-color="rgb(7.095337%, 7.095337%, 7.095337%)" stop-opacity="1"/>
<stop offset="0.792969" stop-color="rgb(6.704712%, 6.704712%, 6.704712%)" stop-opacity="1"/>
<stop offset="0.804688" stop-color="rgb(6.314087%, 6.314087%, 6.314087%)" stop-opacity="1"/>
<stop offset="0.816406" stop-color="rgb(5.987549%, 5.987549%, 5.987549%)" stop-opacity="1"/>
<stop offset="0.824219" stop-color="rgb(5.728149%, 5.728149%, 5.728149%)" stop-opacity="1"/>
<stop offset="0.832031" stop-color="rgb(5.467224%, 5.467224%, 5.467224%)" stop-opacity="1"/>
<stop offset="0.839844" stop-color="rgb(5.206299%, 5.206299%, 5.206299%)" stop-opacity="1"/>
<stop offset="0.847656" stop-color="rgb(4.946899%, 4.946899%, 4.946899%)" stop-opacity="1"/>
<stop offset="0.855469" stop-color="rgb(4.685974%, 4.685974%, 4.685974%)" stop-opacity="1"/>
<stop offset="0.863281" stop-color="rgb(4.425049%, 4.425049%, 4.425049%)" stop-opacity="1"/>
<stop offset="0.871094" stop-color="rgb(4.165649%, 4.165649%, 4.165649%)" stop-opacity="1"/>
<stop offset="0.878906" stop-color="rgb(3.840637%, 3.840637%, 3.840637%)" stop-opacity="1"/>
<stop offset="0.890625" stop-color="rgb(3.450012%, 3.450012%, 3.450012%)" stop-opacity="1"/>
<stop offset="0.902344" stop-color="rgb(3.059387%, 3.059387%, 3.059387%)" stop-opacity="1"/>
<stop offset="0.914062" stop-color="rgb(2.732849%, 2.732849%, 2.732849%)" stop-opacity="1"/>
<stop offset="0.921875" stop-color="rgb(2.471924%, 2.471924%, 2.471924%)" stop-opacity="1"/>
<stop offset="0.929688" stop-color="rgb(2.212524%, 2.212524%, 2.212524%)" stop-opacity="1"/>
<stop offset="0.9375" stop-color="rgb(1.951599%, 1.951599%, 1.951599%)" stop-opacity="1"/>
<stop offset="0.945312" stop-color="rgb(1.626587%, 1.626587%, 1.626587%)" stop-opacity="1"/>
<stop offset="0.957031" stop-color="rgb(1.300049%, 1.300049%, 1.300049%)" stop-opacity="1"/>
<stop offset="0.964844" stop-color="rgb(1.040649%, 1.040649%, 1.040649%)" stop-opacity="1"/>
<stop offset="0.972656" stop-color="rgb(0.715637%, 0.715637%, 0.715637%)" stop-opacity="1"/>
<stop offset="0.984375" stop-color="rgb(0.389099%, 0.389099%, 0.389099%)" stop-opacity="1"/>
<stop offset="0.992188" stop-color="rgb(0.1297%, 0.1297%, 0.1297%)" stop-opacity="1"/>
<stop offset="1" stop-color="rgb(0%, 0%, 0%)" stop-opacity="1"/>
</radialGradient>
</defs>
<g clip-path="url(#clip-0)">
<rect x="-387.3" y="-387.3" width="4647.6" height="4647.6" fill="url(#radial-pattern-0)"/>
</g>
<path fill-rule="evenodd" fill="rgb(100%, 100%, 99.609375%)" fill-opacity="1" d="M 1457.199219 2559.300781 C 1464.300781 2559.300781 1471 2561.800781 1476.398438 2566.398438 C 1541 2620.601562 1613.601562 2662.699219 1691.898438 2691.101562 C 1703.601562 2695.300781 1711.5 2706.5 1711.5 2719.398438 L 1711.5 2865.699219 C 1711.5 2885.300781 1727.300781 2901.101562 1746.898438 2901.101562 L 2124.601562 2901.101562 C 2144.199219 2901.101562 2160 2885.300781 2160 2865.699219 L 2160 2719.398438 C 2160 2706.898438 2167.898438 2695.601562 2179.601562 2691.101562 C 2258.398438 2662.300781 2330.898438 2620.601562 2395.101562 2566.398438 C 2404.699219 2558.5 2418.398438 2557.199219 2429.300781 2563.5 L 2556 2636.898438 C 2563.898438 2641.5 2573.5 2642.699219 2582.699219 2640.199219 C 2591.898438 2637.699219 2599.398438 2631.898438 2604.398438 2623.898438 L 2793.300781 2296.601562 C 2797.898438 2288.699219 2799.101562 2279.101562 2796.601562 2269.898438 C 2794.101562 2260.699219 2788.300781 2253.199219 2780.300781 2248.199219 L 2653.601562 2174.800781 C 2642.800781 2168.5 2636.898438 2156 2639 2143.5 C 2644.398438 2112.199219 2647.800781 2080.5 2649.398438 2048.898438 L 1221.300781 2048.898438 C 1222.601562 2080.601562 1225.898438 2112.300781 1231.699219 2143.5 C 1233.800781 2156 1227.898438 2168.5 1217.101562 2174.800781 L 1090.398438 2248.199219 C 1082.5 2252.800781 1076.601562 2260.699219 1074.101562 2269.898438 C 1071.601562 2279.101562 1072.800781 2288.699219 1077.398438 2296.601562 L 1266.300781 2623.898438 C 1270.898438 2631.800781 1278.800781 2637.699219 1288 2640.199219 C 1297.199219 2642.699219 1306.800781 2641.5 1314.699219 2636.898438 L 1441.398438 2563.5 C 1446.800781 2561 1452.199219 2559.300781 1457.199219 2559.300781 Z M 2125.5 2961.199219 L 1747.800781 2961.199219 C 1695.300781 2961.199219 1652.300781 2918.300781 1652.300781 2865.699219 L 1652.300781 2740.199219 C 1581 2712.300781 1514.699219 2673.898438 1454.699219 2626 L 1345.898438 2689 C 1323.800781 2701.5 1298.398438 2705.300781 1273.398438 2698.601562 C 1248.800781 2691.898438 1228 2676.101562 1215.5 2654.398438 L 1026.601562 2327.101562 C 1014.101562 2305 1010.300781 2279.601562 1017 2254.601562 C 1023.699219 2230 1039.5 2209.199219 1061.199219 2196.699219 L 1170 2133.699219 C 1164.601562 2096.199219 1161.699219 2057.800781 1161.699219 2019.5 C 1161.699219 2002.800781 1175 1989.5 1191.699219 1989.5 L 2681.300781 1989.5 C 2698 1989.5 2711.300781 2002.800781 2711.300781 2019.5 C 2711.300781 2057.898438 2708.398438 2096.199219 2703 2133.699219 L 2811.800781 2196.699219 C 2833.898438 2209.199219 2849.699219 2230.101562 2856 2254.601562 C 2862.699219 2279.199219 2859.300781 2305 2846.398438 2327.101562 L 2657.5 2654.398438 C 2645 2676.5 2624.101562 2692.300781 2599.601562 2698.601562 C 2575 2705.300781 2549.199219 2701.898438 2527.101562 2689 L 2418.300781 2626 C 2358.300781 2673.898438 2292 2712.300781 2220.699219 2740.199219 L 2220.699219 2865.699219 C 2220.601562 2918.300781 2178 2961.199219 2125.5 2961.199219 "/>
<path fill-rule="evenodd" fill="rgb(100%, 100%, 99.609375%)" fill-opacity="1" d="M 1527.699219 2049.5 C 1543.101562 2261.300781 1720.300781 2429.300781 1936.300781 2429.300781 C 2152.199219 2429.300781 2329.398438 2261.699219 2344.898438 2049.5 Z M 1936.199219 2488.898438 C 1677.300781 2488.898438 1466.398438 2278.398438 1466.398438 2019.101562 C 1466.398438 2002.398438 1479.699219 1989.101562 1496.398438 1989.101562 L 2375.601562 1989.101562 C 2392.300781 1989.101562 2405.601562 2002.398438 2405.601562 2019.101562 C 2406.101562 2278.300781 2195.5 2488.898438 1936.199219 2488.898438 "/>
<path fill-rule="evenodd" fill="rgb(100%, 100%, 99.609375%)" fill-opacity="1" d="M 1441 2049.5 C 1424.300781 2049.5 1411 2036.199219 1411 2019.5 L 1411 1820.199219 L 1245.898438 1701 C 1238 1695.199219 1233.398438 1686.398438 1233.398438 1676.800781 L 1233.398438 1543.398438 C 1233.398438 1526.699219 1246.699219 1513.398438 1263.398438 1513.398438 C 1280.101562 1513.398438 1293.398438 1526.699219 1293.398438 1543.398438 L 1293.398438 1661 L 1458.5 1780.199219 C 1466.398438 1786 1471 1794.800781 1471 1804.398438 L 1471 2018.699219 C 1471 2035.699219 1457.601562 2049.5 1441 2049.5 "/>
<path fill-rule="evenodd" fill="rgb(100%, 100%, 99.609375%)" fill-opacity="1" d="M 2431.898438 2049.5 C 2415.199219 2049.5 2401.898438 2036.199219 2401.898438 2019.5 L 2401.898438 1805.199219 C 2401.898438 1795.601562 2406.5 1786.398438 2414.398438 1781 L 2579.5 1661.800781 L 2579.5 1543.398438 C 2579.5 1526.699219 2592.800781 1513.398438 2609.5 1513.398438 C 2626.199219 1513.398438 2639.5 1526.699219 2639.5 1543.398438 L 2639.5 1676.398438 C 2639.5 1686 2634.898438 1695.199219 2627 1700.601562 L 2461.898438 1819.800781 L 2461.898438 2019 C 2461.898438 2035.699219 2448.199219 2049.5 2431.898438 2049.5 "/>
<path fill-rule="evenodd" fill="rgb(100%, 100%, 99.609375%)" fill-opacity="1" d="M 1936.199219 2049.5 C 1919.5 2049.5 1906.199219 2036.199219 1906.199219 2019.5 L 1906.199219 1361.199219 C 1906.199219 1344.5 1919.5 1331.199219 1936.199219 1331.199219 C 1952.898438 1331.199219 1966.199219 1344.5 1966.199219 1361.199219 L 1966.199219 2019.5 C 1966.300781 2035.699219 1952.898438 2049.5 1936.199219 2049.5 "/>
<path fill-rule="evenodd" fill="rgb(100%, 100%, 99.609375%)" fill-opacity="1" d="M 1162.5 1154.398438 C 1143.699219 1154.398438 1128.300781 1169.800781 1128.300781 1188.601562 L 1128.300781 1479.601562 C 1128.300781 1498.398438 1143.699219 1513.800781 1162.5 1513.800781 L 1364.699219 1513.800781 C 1383.5 1513.800781 1398.898438 1498.398438 1398.898438 1479.601562 L 1398.898438 1188.601562 C 1398.898438 1169.800781 1383.5 1154.398438 1364.699219 1154.398438 Z M 1364.699219 1573.398438 L 1162.5 1573.398438 C 1110.800781 1573.398438 1068.300781 1531.300781 1068.300781 1479.199219 L 1068.300781 1188.199219 C 1068.300781 1136.5 1110.398438 1094 1162.5 1094 L 1364.699219 1094 C 1416.398438 1094 1458.898438 1136.101562 1458.898438 1188.199219 L 1458.898438 1479.199219 C 1458.898438 1531.300781 1416.398438 1573.398438 1364.699219 1573.398438 "/>
<path fill-rule="evenodd" fill="rgb(100%, 100%, 99.609375%)" fill-opacity="1" d="M 2508.199219 1154.398438 C 2489.398438 1154.398438 2474 1169.800781 2474 1188.601562 L 2474 1479.601562 C 2474 1498.398438 2489.398438 1513.800781 2508.199219 1513.800781 L 2710.398438 1513.800781 C 2729.199219 1513.800781 2744.601562 1498.398438 2744.601562 1479.601562 L 2744.601562 1188.601562 C 2744.601562 1169.800781 2729.199219 1154.398438 2710.398438 1154.398438 Z M 2710.398438 1573.398438 L 2508.199219 1573.398438 C 2456.5 1573.398438 2414 1531.300781 2414 1479.199219 L 2414 1188.199219 C 2414 1136.5 2456.101562 1094 2508.199219 1094 L 2710.398438 1094 C 2762.101562 1094 2804.601562 1136.101562 2804.601562 1188.199219 L 2804.601562 1479.199219 C 2804.199219 1531.300781 2762.101562 1573.398438 2710.398438 1573.398438 "/>
<path fill-rule="evenodd" fill="rgb(100%, 100%, 99.609375%)" fill-opacity="1" d="M 1835.300781 972.199219 C 1816.5 972.199219 1801.101562 987.601562 1801.101562 1006.398438 L 1801.101562 1297.398438 C 1801.101562 1316.199219 1816.5 1331.601562 1835.300781 1331.601562 L 2037.5 1331.601562 C 2056.300781 1331.601562 2071.699219 1316.199219 2071.699219 1297.398438 L 2071.699219 1006.398438 C 2071.699219 987.601562 2056.300781 972.199219 2037.5 972.199219 Z M 2037.5 1391.199219 L 1835.300781 1391.199219 C 1783.601562 1391.199219 1741.101562 1349.101562 1741.101562 1297 L 1741.101562 1006 C 1741.101562 954.300781 1783.199219 911.800781 1835.300781 911.800781 L 2037.5 911.800781 C 2089.199219 911.800781 2131.699219 953.898438 2131.699219 1006 L 2131.699219 1297 C 2131.300781 1349.101562 2089.199219 1391.199219 2037.5 1391.199219 "/>
<path fill-rule="evenodd" fill="rgb(100%, 100%, 99.609375%)" fill-opacity="1" d="M 1312.101562 1292.800781 L 1214.5 1292.800781 C 1197.800781 1292.800781 1184.5 1279.5 1184.5 1262.800781 C 1184.5 1246.101562 1197.800781 1232.800781 1214.5 1232.800781 L 1312.101562 1232.800781 C 1328.800781 1232.800781 1342.101562 1246.101562 1342.101562 1262.800781 C 1342.199219 1279.5 1328.800781 1292.800781 1312.101562 1292.800781 "/>
<path fill-rule="evenodd" fill="rgb(100%, 100%, 99.609375%)" fill-opacity="1" d="M 1312.101562 1435.398438 L 1214.5 1435.398438 C 1197.800781 1435.398438 1184.5 1422.101562 1184.5 1405.398438 C 1184.5 1388.699219 1197.800781 1375.398438 1214.5 1375.398438 L 1312.101562 1375.398438 C 1328.800781 1375.398438 1342.101562 1388.699219 1342.101562 1405.398438 C 1342.199219 1422 1328.800781 1435.398438 1312.101562 1435.398438 "/>
<path fill-rule="evenodd" fill="rgb(100%, 100%, 99.609375%)" fill-opacity="1" d="M 1985 1110.199219 L 1887.398438 1110.199219 C 1870.699219 1110.199219 1857.398438 1096.898438 1857.398438 1080.199219 C 1857.398438 1063.5 1870.699219 1050.199219 1887.398438 1050.199219 L 1985 1050.199219 C 2001.699219 1050.199219 2015 1063.5 2015 1080.199219 C 2015 1096.898438 2001.699219 1110.199219 1985 1110.199219 "/>
<path fill-rule="evenodd" fill="rgb(100%, 100%, 99.609375%)" fill-opacity="1" d="M 1985 1252.800781 L 1887.398438 1252.800781 C 1870.699219 1252.800781 1857.398438 1239.5 1857.398438 1222.800781 C 1857.398438 1206.101562 1870.699219 1192.800781 1887.398438 1192.800781 L 1985 1192.800781 C 2001.699219 1192.800781 2015 1206.101562 2015 1222.800781 C 2015 1239.398438 2001.699219 1252.800781 1985 1252.800781 "/>
<path fill-rule="evenodd" fill="rgb(100%, 100%, 99.609375%)" fill-opacity="1" d="M 2657.898438 1292.800781 L 2560.300781 1292.800781 C 2543.601562 1292.800781 2530.300781 1279.5 2530.300781 1262.800781 C 2530.300781 1246.101562 2543.601562 1232.800781 2560.300781 1232.800781 L 2657.898438 1232.800781 C 2674.601562 1232.800781 2687.898438 1246.101562 2687.898438 1262.800781 C 2687.898438 1279.5 2674.601562 1292.800781 2657.898438 1292.800781 "/>
<path fill-rule="evenodd" fill="rgb(100%, 100%, 99.609375%)" fill-opacity="1" d="M 2657.898438 1435.398438 L 2560.300781 1435.398438 C 2543.601562 1435.398438 2530.300781 1422.101562 2530.300781 1405.398438 C 2530.300781 1388.699219 2543.601562 1375.398438 2560.300781 1375.398438 L 2657.898438 1375.398438 C 2674.601562 1375.398438 2687.898438 1388.699219 2687.898438 1405.398438 C 2687.898438 1422 2674.601562 1435.398438 2657.898438 1435.398438 "/>
</svg>
